<svg width="513" height="513" viewBox="0 0 513 513" fill="none" xmlns="http://www.w3.org/2000/svg">
<path d="M256.85 340.298C216.41 340.298 182.678 311.665 174.67 273.62H40.1383C49.6476 384.25 142.438 471.052 255.449 471.052C368.459 471.052 461.35 384.25 470.759 273.62H339.03C331.022 311.765 297.289 340.298 256.85 340.298Z" fill="white"/>
<path d="M304.897 465.445C394.584 444.42 462.751 367.63 470.759 273.62H417.707C412.402 358.92 367.658 431.205 304.897 465.445Z" fill="#DFDFDF"/>
<path d="M306.398 256.3C306.298 256.3 306.298 256.3 306.398 256.3C306.298 250.193 305.197 244.386 303.195 238.98C296.188 220.158 278.071 206.842 256.85 206.842C235.629 206.842 217.512 220.258 210.505 238.98C208.503 244.386 207.402 250.193 207.402 256.3H207.502C207.502 262.407 208.603 268.214 210.605 273.62C217.612 292.442 235.729 305.758 256.95 305.758C278.171 305.758 296.288 292.342 303.295 273.62C305.297 268.314 306.398 262.407 306.398 256.3Z" fill="white"/>
<path d="M256.95 172.402C297.39 172.402 331.122 201.035 339.13 239.08H473.662C464.152 128.35 371.362 41.5483 258.251 41.5483C145.141 41.5483 52.4503 128.35 42.941 238.98H174.77C182.778 200.935 216.511 172.402 256.95 172.402Z" fill="#FF1C1C"/>
<path d="M417.707 238.98H473.562C465.354 143.368 394.885 65.4764 302.895 46.1537C366.757 79.8933 412.302 152.879 417.707 238.98Z" fill="#DF1818"/>
<path d="M258.251 41.5483C371.362 41.5483 464.152 128.35 473.562 238.98H339.03C331.022 200.935 297.289 172.302 256.85 172.302C216.41 172.302 182.678 200.935 174.67 238.98H42.941C52.4503 128.35 145.241 41.5483 258.251 41.5483ZM303.195 238.98C305.197 244.386 306.298 250.193 306.298 256.3H306.398C306.398 262.407 305.297 268.214 303.295 273.62C296.288 292.442 278.171 305.758 256.95 305.758C235.729 305.758 217.612 292.342 210.605 273.62C208.603 268.214 207.502 262.407 207.502 256.3H207.402C207.402 250.193 208.503 244.386 210.505 238.98C217.512 220.158 235.629 206.842 256.85 206.842C278.071 206.842 296.188 220.258 303.195 238.98ZM255.449 471.152C142.338 471.152 49.5475 384.35 40.1383 273.72H174.67C182.678 311.765 216.41 340.399 256.85 340.399C297.289 340.399 331.022 311.765 339.03 273.72H470.859C461.35 384.25 368.559 471.152 255.449 471.152ZM256.85 0.299999C115.512 0.299999 0.899994 114.934 0.899994 256.3C0.899994 397.666 115.512 512.3 256.85 512.3C398.188 512.3 512.9 397.766 512.9 256.3C512.9 114.834 398.288 0.299999 256.85 0.299999Z" fill="black"/>
</svg>
